<svg width="61" height="15" viewBox="0 0 61 15" fill="none" xmlns="http://www.w3.org/2000/svg"><path d="M53.049 2.927c.3-.921 1.603-.921 1.902 0l.396 1.219a1 1 0 0 0 .951.69h1.282c.968 0 1.371 1.24.587 1.81l-1.036.753a1 1 0 0 0-.364 1.118l.396 1.22c.3.92-.755 1.687-1.538 1.117l-1.037-.753a1 1 0 0 0-1.176 0l-1.037.753c-.783.57-1.838-.197-1.538-1.118l.396-1.219a1 1 0 0 0-.364-1.118l-1.036-.753c-.784-.57-.381-1.81.587-1.81h1.282a1 1 0 0 0 .95-.69l.397-1.219Z" fill="#FFE600"/><path d="M2.46 10.844c0 .336.112.6.336.792.224.184.46.276.708.276.256 0 .492-.072.708-.216.224-.152.404-.228.54-.228.24 0 .532.212.876.636.184.232.276.44.276.624 0 .304-.22.588-.66.852-.456.32-1.016.48-1.68.48-.744 0-1.46-.268-2.148-.804a2.87 2.87 0 0 1-.804-1.02A3.22 3.22 0 0 1 .3 10.82c0-.52.104-.988.312-1.404a2.87 2.87 0 0 1 .804-1.02c.664-.528 1.372-.792 2.124-.792.304 0 .6.044.888.132.288.08.5.16.636.24l.192.12c.144.096.256.172.336.228.208.16.312.344.312.552 0 .2-.084.428-.252.684-.288.44-.564.66-.828.66-.152 0-.368-.088-.648-.264-.144-.136-.352-.204-.624-.204-.264 0-.512.096-.744.288-.232.192-.348.46-.348.804ZM12.6 10.088c0 .488-.125.852-.373 1.092-.24.232-.508.348-.804.348H8.58c0 .224.132.412.396.564.264.152.528.228.792.228.464 0 .828-.048 1.092-.144l.132-.048c.192-.088.352-.132.48-.132.256 0 .476.18.66.54.104.216.156.4.156.552 0 .712-.852 1.068-2.556 1.068-.592 0-1.12-.1-1.584-.3-.456-.208-.812-.48-1.068-.816a3.45 3.45 0 0 1-.756-2.172c0-1.008.324-1.812.972-2.412.656-.608 1.472-.912 2.448-.912 1.112 0 1.928.392 2.448 1.176.272.416.408.872.408 1.368Zm-2.533.348c.304 0 .456-.128.456-.384a.535.535 0 0 0-.216-.444c-.136-.112-.336-.168-.6-.168-.256 0-.512.108-.768.324-.256.208-.384.432-.384.672h1.512ZM13.382 5.756c0-.184.004-.32.012-.408.016-.096.052-.204.108-.324.112-.216.424-.324.936-.324.488 0 .792.108.912.324.064.12.1.228.108.324.016.096.024.236.024.42v5.556c0 .288.024.472.072.552.048.072.152.108.312.108.168 0 .28.008.336.024.056.008.124.04.204.096.16.104.24.388.24.852 0 .504-.08.812-.24.924-.208.144-.704.168-1.488.072-.616-.08-1.016-.284-1.2-.612-.224-.392-.336-1.016-.336-1.872V5.756ZM23.287 10.088c0 .488-.124.852-.372 1.092-.24.232-.508.348-.804.348h-2.844c0 .224.132.412.396.564.264.152.528.228.792.228.464 0 .828-.048 1.092-.144l.132-.048c.192-.088.352-.132.48-.132.256 0 .476.18.66.54.104.216.156.4.156.552 0 .712-.852 1.068-2.556 1.068-.592 0-1.12-.1-1.584-.3-.456-.208-.812-.48-1.068-.816a3.45 3.45 0 0 1-.756-2.172c0-1.008.324-1.812.972-2.412.656-.608 1.472-.912 2.448-.912 1.112 0 1.928.392 2.448 1.176.272.416.408.872.408 1.368Zm-2.532.348c.304 0 .456-.128.456-.384a.535.535 0 0 0-.216-.444c-.136-.112-.336-.168-.6-.168-.256 0-.512.108-.768.324-.256.208-.384.432-.384.672h1.512ZM24.118 13.436c-.152-.096-.228-.248-.228-.456 0-.208.152-.524.456-.948.088-.136.228-.204.42-.204.2 0 .468.1.804.3.336.192.64.288.912.288.488 0 .732-.096.732-.288 0-.152-.268-.264-.804-.336a3.928 3.928 0 0 1-1.5-.564c-.232-.144-.424-.368-.576-.672-.152-.312-.228-.68-.228-1.104 0-1.264.868-1.896 2.604-1.896.568 0 1.152.136 1.752.408.28.128.42.288.42.48s-.088.428-.264.708c-.176.28-.356.42-.54.42-.096 0-.276-.06-.54-.18a1.954 1.954 0 0 0-.84-.18c-.472 0-.708.088-.708.264 0 .24.272.396.816.468.528.056 1.04.208 1.536.456.232.112.424.308.576.588.16.272.24.616.24 1.032 0 .416-.08.772-.24 1.068a1.491 1.491 0 0 1-.648.648c-.512.248-1.156.372-1.932.372-.768 0-1.508-.224-2.22-.672ZM33.425 9.8l-.78-.048v1.656c0 .216.032.372.096.468.072.096.2.144.384.144.192 0 .336.008.432.024a.776.776 0 0 1 .324.108c.184.104.276.372.276.804 0 .504-.112.812-.336.924-.12.056-.228.092-.324.108-.088.008-.22.012-.396.012-.832 0-1.464-.188-1.896-.564-.432-.376-.648-1.012-.648-1.908V9.752a3.16 3.16 0 0 1-.492.036.569.569 0 0 1-.444-.204c-.112-.136-.168-.368-.168-.696 0-.328.02-.564.06-.708.04-.152.096-.26.168-.324a.736.736 0 0 1 .48-.156l.396.048V6.512c0-.184.004-.32.012-.408a.852.852 0 0 1 .12-.288c.104-.2.412-.3.924-.3.544 0 .868.148.972.444.04.128.06.332.06.612v1.176c.352-.032.616-.048.792-.048.184 0 .32.008.408.024a.856.856 0 0 1 .324.108c.208.104.312.412.312.924 0 .504-.108.812-.324.924-.12.056-.228.092-.324.108a4.977 4.977 0 0 1-.408.012ZM35.144 8.732c0-.184.004-.32.012-.408.016-.096.052-.204.108-.324.112-.208.424-.312.936-.312.384 0 .656.068.816.204.136.112.208.284.216.516.008.08.012.196.012.348v4.2c0 .184-.008.324-.024.42a.854.854 0 0 1-.108.312c-.104.208-.412.312-.924.312-.504 0-.812-.108-.924-.324a1.322 1.322 0 0 1-.108-.312 5.184 5.184 0 0 1-.012-.42V8.732Zm1.968-2.22a.491.491 0 0 1-.312.24 2.097 2.097 0 0 1-.612.072c-.248 0-.448-.024-.6-.072a.526.526 0 0 1-.324-.252 1.322 1.322 0 0 1-.108-.312 5.464 5.464 0 0 1-.012-.42c0-.184.004-.32.012-.408.016-.096.052-.2.108-.312.112-.216.424-.324.936-.324.504 0 .808.108.912.324.064.12.1.228.108.324.016.088.024.224.024.408 0 .184-.008.324-.024.42a.854.854 0 0 1-.108.312ZM42.307 8.348c.048-.448.364-.672.948-.672.312 0 .544.024.696.072a.481.481 0 0 1 .312.252c.064.12.1.228.108.324.016.088.024.224.024.408v4.2c0 .184-.008.324-.024.42a.97.97 0 0 1-.096.312c-.112.208-.388.312-.828.312-.432 0-.724-.052-.876-.156a.677.677 0 0 1-.252-.48c-.296.424-.792.636-1.488.636-.688 0-1.328-.316-1.92-.948-.592-.632-.888-1.364-.888-2.196 0-.84.296-1.572.888-2.196.6-.632 1.256-.948 1.968-.948.272 0 .52.048.744.144.224.096.38.188.468.276.088.08.16.16.216.24Zm-2.184 2.496c0 .264.104.504.312.72.208.208.46.312.756.312s.54-.108.732-.324c.2-.216.3-.452.3-.708 0-.264-.096-.508-.288-.732-.184-.224-.436-.336-.756-.336a.983.983 0 0 0-.768.336 1.102 1.102 0 0 0-.288.732ZM45.351 5.756c0-.184.004-.32.012-.408.016-.096.052-.204.108-.324.112-.216.424-.324.936-.324.488 0 .792.108.912.324.064.12.1.228.108.324.016.096.024.236.024.42v5.556c0 .288.024.472.072.552.048.072.152.108.312.108.168 0 .28.008.336.024.056.008.124.04.204.096.16.104.24.388.24.852 0 .504-.08.812-.24.924-.208.144-.704.168-1.488.072-.616-.08-1.016-.284-1.2-.612-.224-.392-.336-1.016-.336-1.872V5.756Z" fill="#9CA0FF"/></svg>